<?xml version="1.0" encoding="utf-8"?>
<!-- Generator: Adobe Illustrator 27.5.0, SVG Export Plug-In . SVG Version: 6.00 Build 0)  -->
<svg version="1.1" id="Layer_1" xmlns="http://www.w3.org/2000/svg" xmlns:xlink="http://www.w3.org/1999/xlink" x="0px" y="0px"
	 viewBox="0 0 2278 2000" style="enable-background:new 0 0 2278 2000;" xml:space="preserve">
<rect style="fill:#FFFFFF;" width="2278" height="2000"/>
<g>
	<path style="fill:#CAE1F9;" d="M969.248,687.703c-15.169-10.09-30.699-19.648-45.658-30.035c-2.732-1.897-5.165-6.785-4.883-10.046
		c1.816-21.024,4.842-41.946,6.516-62.979c0.487-6.121,1.851-9.335,7.706-11.67c20.62-8.222,41.018-17,61.489-25.59
		c3.32-1.393,6.59-2.903,12.313-5.434c-10.014-31.441-19.918-62.531-30.069-94.402c-26.392,5.423-50.463,9.964-74.308,15.487
		c-8.407,1.947-13.003,1.002-18.476-6.769c-11.184-15.88-24.577-30.191-36.608-45.503c-1.845-2.348-2.662-7.106-1.617-9.865
		c7.973-21.063,15.926-42.177,25.16-62.702c4.432-9.85,2.154-15.118-6.677-19.626c-3.395-1.733-6.163-4.691-9.217-7.091
		c-15.239-8.063-30.479-16.126-45.719-24.189c-1.911-0.367-3.942-0.436-5.714-1.146c-18.579-7.455-15.007-7.324-25.425,8.21
		c-12.693,18.928-25.067,38.069-35.929,54.605c-28.4-2.462-54.942-4.764-82.355-7.14c-10.538-25.102-21.551-51.332-32.635-77.734
		c-33.399,4.722-64.054,15.453-94.1,29.955c5.385,25.951,10.571,51.265,15.943,76.54c0.964,4.536,0.705,7.288-3.725,10.647
		c-17.341,13.152-34.372,26.77-50.765,41.077c-4.726,4.124-7.782,4.165-12.902,2.052c-21.136-8.722-42.475-16.952-63.648-25.587
		c-5.26-2.146-8.655-1.962-12.505,3.194c-17.269,23.129-28.977,48.952-38.541,75.944c-1.893,5.342,0.687,7.633,4.73,10.223
		c18.703,11.978,37.117,24.411,55.901,36.259c5.413,3.414,7.078,6.372,6.048,13.344c-3.56,24.086-5.716,48.38-8.624,74.544
		c-22.817,9.579-48.708,20.448-74.591,31.314c4.672,34.036,14.017,65.507,29.312,95.464c28.287-6.012,55.806-11.861,80.73-17.158
		c15.686,17.839,29.839,34.799,45.034,50.769c5.741,6.035,6.784,10.608,3.5,18.134c-8.746,20.045-16.712,40.434-24.785,60.767
		c-1.595,4.018-4.758,8.705,1.52,11.966c25.537,13.264,51.06,26.554,76.601,39.81c5.429,2.817,8.831,0.975,12.07-4.143
		c12.055-19.041,24.947-37.56,36.673-56.795c4.524-7.421,9.442-7.737,17.119-6.757c18.958,2.421,38.066,4.472,57.144,4.778
		c8.223,0.132,11.25,2.254,14.074,9.547c9.075,23.433,19.07,46.51,28.509,69.238c20.376-0.143,75.766-17.907,95.686-30.473
		c-5.406-24.971-10.612-50.281-16.522-75.425c-1.479-6.29,0.373-9.01,5.167-12.833c15.467-12.337,30.06-25.766,45.406-38.264
		c2.581-2.102,7.845-3.287,10.815-2.147c18.87,7.24,37.491,15.142,56.102,23.04c10.405,4.416,14.588,6.237,18.552,3.541
		l42.922-81.125C986.049,698.942,981.519,695.867,969.248,687.703z M807.53,660.441c-38.365,72.513-128.25,100.196-200.763,61.831h0
		c-72.513-38.366-100.195-128.25-61.83-200.763l0,0c38.365-72.513,128.25-100.196,200.763-61.831h0.001
		C818.213,498.043,845.896,587.928,807.53,660.441L807.53,660.441z"/>
	<path style="opacity:0.2;fill:#9BC1F9;" d="M1577.784,584.077c-5.568-3.704-11.269-7.212-16.76-11.025
		c-1.003-0.696-1.896-2.491-1.793-3.688c0.667-7.718,1.777-15.398,2.392-23.119c0.18-2.247,0.68-3.427,2.829-4.284
		c7.569-3.018,15.058-6.24,22.572-9.393c1.219-0.512,2.419-1.066,4.52-1.995c-3.676-11.542-7.311-22.955-11.038-34.654
		c-9.688,1.991-18.524,3.658-27.277,5.685c-3.086,0.715-4.773,0.368-6.782-2.484c-4.105-5.83-9.021-11.083-13.438-16.704
		c-0.677-0.862-0.977-2.608-0.594-3.621c2.927-7.732,5.846-15.483,9.236-23.017c1.626-3.616,0.79-5.55-2.451-7.205
		c-1.246-0.636-2.263-1.722-3.384-2.603c-5.594-2.96-11.188-5.92-16.783-8.879c-0.701-0.135-1.446-0.16-2.098-0.421
		c-6.819-2.736-5.509-2.689-9.333,3.014c-4.659,6.948-9.202,13.975-13.189,20.045c-10.425-0.904-20.168-1.749-30.23-2.621
		c-3.869-9.214-7.911-18.843-11.98-28.535c-12.26,1.733-23.513,5.672-34.542,10.996c1.977,9.526,3.88,18.819,5.853,28.097
		c0.354,1.666,0.259,2.675-1.367,3.909c-6.366,4.828-12.618,9.827-18.636,15.079c-1.734,1.514-2.856,1.529-4.736,0.754
		c-7.759-3.202-15.592-6.223-23.364-9.393c-1.931-0.788-3.177-0.721-4.59,1.172c-6.34,8.491-10.638,17.97-14.148,27.879
		c-0.694,1.961,0.252,2.802,1.736,3.752c6.866,4.397,13.625,8.961,20.521,13.31c1.987,1.253,2.599,2.339,2.221,4.898
		c-1.307,8.842-2.099,17.76-3.166,27.365c-8.376,3.516-17.88,7.506-27.381,11.495c1.715,12.494,5.146,24.047,10.76,35.044
		c10.384-2.207,20.485-4.354,29.635-6.299c5.759,6.548,10.954,12.774,16.531,18.636c2.107,2.216,2.49,3.895,1.284,6.657
		c-3.21,7.358-6.135,14.843-9.098,22.307c-0.586,1.475-1.747,3.195,0.558,4.393c9.375,4.869,18.744,9.748,28.12,14.614
		c1.992,1.034,3.241,0.358,4.431-1.521c4.425-6.99,9.157-13.788,13.462-20.849c1.66-2.724,3.466-2.84,6.284-2.481
		c6.959,0.889,13.973,1.642,20.977,1.754c3.019,0.048,4.13,0.828,5.166,3.505c3.331,8.602,7.001,17.073,10.466,25.416
		c7.479-0.052,27.813-6.573,35.125-11.185c-1.985-9.167-3.896-18.458-6.065-27.688c-0.543-2.309,0.137-3.308,1.896-4.711
		c5.678-4.529,11.035-9.458,16.668-14.046c0.947-0.772,2.88-1.207,3.97-0.789c6.928,2.658,13.763,5.559,20.595,8.458
		c3.819,1.621,5.355,2.289,6.811,1.3l15.756-29.78C1583.952,588.203,1582.29,587.074,1577.784,584.077z M1518.42,574.07
		c-14.083,26.619-47.078,36.781-73.697,22.697l0,0c-26.618-14.083-36.78-47.079-22.697-73.697l0.001-0.001
		c14.083-26.618,47.078-36.78,73.697-22.697l0,0C1522.342,514.456,1532.504,547.451,1518.42,574.07L1518.42,574.07z"/>
	<g>
		<g>
			<path style="fill:#3C8F7C;" d="M613.376,1616.063c0,0-284.939-140.494-333.942-213.771
				c-49.002-73.276,23.031-77.428,23.031-77.428s-127.156-123.667-109.266-175.729c17.89-52.062,83.76-4.314,83.76-4.314
				s-81.761-182.003-43.21-200.299c71.806-34.079,172.539,161.746,172.539,161.746s-21.648-85.069,27.798-82.305
				c74.57,4.169,71.489,196.602,71.489,196.602s8.422-73.783,53.367-49.815C639.583,1213.75,613.376,1616.063,613.376,1616.063z"/>
		</g>
		<path style="fill:#50BFA5;" d="M575.167,1140.982c-35.096-19.475-70.052,37.449-70.052,37.449s3.541-150.301-71.029-154.47
			c-49.446-2.765-27.798,82.305-27.798,82.305S305.555,910.442,233.749,944.521l379.955,668.415
			C616.388,1566.258,644.694,1179.564,575.167,1140.982z"/>
	</g>
	<g>
		<g>
			<path style="fill:#3C8F7C;" d="M606.012,1617.805c0,0-233.042,28.943-293.382,3.149c-60.34-25.793-17.097-57.652-17.097-57.652
				s-129.563-25.467-139.559-65.209c-9.996-39.742,49.772-36.574,49.772-36.574s-124.234-80.451-107.623-107.527
				c30.94-50.434,173.342,30.776,173.342,30.776s-48.07-44.264-16.105-62.632c48.206-27.7,124.478,93.578,124.478,93.578
				s-4.738-29.893,33.035-33.206C480.645,1376.563,606.012,1617.805,606.012,1617.805z"/>
		</g>
		<path style="fill:#50BFA5;" d="M414.402,1360.787c-37.772,3.313-34.564,54.927-34.564,54.927s-77.651-143.761-125.857-116.061
			c-31.965,18.368,5.853,78.693,5.853,78.693s-130.771-74.789-161.712-24.355l508.597,262.521
			C589.427,1586.308,477.707,1355.232,414.402,1360.787z"/>
	</g>
	<path style="fill:#50BFA5;" d="M1946.041,1277.46l12.519-30.251c9.712-22.248,34.564-32.873,55.509-23.73l0,0
		c52.78,23.04,75.727,87.169,51.251,143.236l-17.894,40.99c-7.839,17.959-5.109,37.714,5.461,51.644
		c9.601,12.649,11.169,30.241,4.512,45.49l-9.434,21.61c-10.213,23.396-30.084,40.725-53.653,47.87
		c-13.784,4.18-25.957,14.524-32.395,29.272l-13.357,30.598c-14.767,33.829-52.554,49.983-84.398,36.082l-18.168-7.931
		c-31.846-13.901-45.69-52.595-30.923-86.423l0,0c23.88-40.448,21.976-70.638,13.514-91.113
		c-12.441-30.107-12.298-64.748,1.162-95.582l1.888-4.324c14.206-32.544,41.639-56.842,74.309-67.247
		C1920.365,1313.058,1935.398,1301.841,1946.041,1277.46z"/>
	<path style="fill:#96D9C9;" d="M1121.481,1875.023c-33.826-43.855-219.314-278.813-340.26-317.968
		c-133.503-43.219-7.677,128.437-7.677,128.437s-236.831-258.969-323.74-235.622c-79.667,21.4,0,181.921,0,181.921
		s-89.728-88.888-198.54-88.888c-105.901,0,73.986,315.246,83.69,332.12H1121.481z"/>
	<g>
		<path style="fill:#256653;" d="M2120.63,934.397c0,0-34.145,44.079-54.247,61.378c-20.102,17.299-39.268,33.855-64.895,88.882
			c-25.627,55.028-24.892,61.329-31.698,75.499c-6.806,14.17-42.566,69.675-45.273,80.748
			c-2.707,11.074-61.094,64.118-79.163,91.098s-47.721,64.625-51.609,86.398l5.273-0.106c0,0,15.726-49.22,62.051-91.885
			c46.325-42.664,43.611-53.386,88.888-70.309c45.277-16.923,87.338-82.976,87.338-82.976s58.067-68.864,65.658-109.918
			C2110.542,1022.152,2129.652,987.98,2120.63,934.397z"/>
		<path style="fill:#256653;" d="M2085.194,846.151c0,0-8.858,32.11-23.793,48.937c-14.936,16.826-26.663,26.428-33.407,46.822
			c-6.743,20.394-25.802,72.583-61.059,92.026c-35.256,19.443-57.253,97.154-84.976,115.763s-34.594,35.019-39.978,76.739
			s-4.596,101.457-53.943,167.715l-3.011-20.034c0,0,37.143-55.313,39.827-92.134s-4.237-95.01,8.852-119.104
			c13.09-24.093-12.15-35.262,12.807-70.501s21.571-50.287,51.049-78.919c0,0,2.587-1.059,14.902-28.219
			c12.316-27.16,70.342-68.697,95.63-81.595C2033.384,890.748,2070.497,869.283,2085.194,846.151z"/>
		<path style="fill:#3C8F7C;" d="M1961.74,986.628c0,0-35.404,37.465-42.253,65.286c-6.85,27.82-9.104,51.221-30.802,86.453
			c-21.697,35.233-1.886,65.303-14.121,84.695c-12.235,19.394-18.611,44.24-22.793,63.233
			c-4.182,18.994-47.987,74.886-59.817,105.593c-11.829,30.707-6.169,32.134-6.169,32.134s14.59-40.78,24.538-53.073
			s41.507-55.312,50.581-72.686c9.075-17.373,24.783-26.225,43.233-54.932c18.449-28.706,40.459-51.378,49.576-96.079
			C1962.831,1102.553,1991.609,1059.826,1961.74,986.628z"/>
		<path style="fill:#3C8F7C;" d="M1809.372,1398.847c0,0,24.604-52.274,75.676-46.189s78.032,22.731,122.557-9.285
			c44.523-32.018,79.79-91.057,93.581-99.426c0,0-15.56-13.202-51.332,7.436c-35.773,20.638-61.258,36.676-81.988,48.715
			s-32.12-1.603-52.531,4.766c-17.106,5.338-42.51,26.351-54.193,37.735c-3.795,3.698-8.023,6.918-12.631,9.536
			c-4.19,2.382-9.206,5.328-12.51,7.588c-6.607,4.52-30.523,38.427-30.523,38.427L1809.372,1398.847z"/>
		<path style="fill:#3C8F7C;" d="M1794.081,1385.059c0,0,33.196-63.207,29.099-98.868c-4.097-35.662-35.229-68.586-28.94-88.926
			c6.289-20.34,42.914-70.752,33.331-116.854c0,0-15.951,35.426-25.091,42.006c-9.141,6.579-66.438,28.362-67.882,74.391
			c-1.444,46.027,44.336,67.513,53.188,83.221c8.853,15.707,24.872,19.416,22.972,28.049c-1.901,8.634-6.057,40.668-18.561,70.321
			L1794.081,1385.059z"/>
		<path style="fill:#327F6B;" d="M1823.74,1344.49l41.167-65.283c0,0,27.766-53.751,47.236-99.431
			c19.472-45.68,49.597-193.148,49.597-193.148s-35.404,37.466-42.253,65.286c-6.85,27.82-9.104,51.221-30.802,86.453
			c-21.697,35.233-1.886,65.303-14.121,84.695c-12.235,19.394-18.61,44.24-22.792,63.233
			c-4.183,18.994-47.988,74.886-59.818,105.593c-6.479,16.821-7.708,24.846-7.497,28.673
			C1786.959,1391.88,1823.74,1344.49,1823.74,1344.49z"/>
		<path style="fill:#327F6B;" d="M1955.013,1330.426c-23.015-0.723-42.33-6.795-72.956,6.567
			c-30.627,13.361-50.808,30.543-50.808,30.543s-16.613,18.244-24.036,28.173c-1.092,1.527-1.736,2.439-1.736,2.439l3.896,0.698
			c0,0,24.604-52.274,75.676-46.189s78.032,22.731,122.557-9.286c44.523-32.017,79.79-91.056,93.581-99.425
			c0,0-44.184,20.405-73.293,40.79S1978.026,1331.147,1955.013,1330.426z"/>
		<path style="fill:#327F6B;" d="M1802.479,1122.416c-9.141,6.579-66.438,28.362-67.882,74.391
			c-1.444,46.027,44.336,67.513,53.188,83.221c8.853,15.707,24.872,19.416,22.972,28.049c-1.901,8.634-6.057,40.668-18.56,70.321
			l0.822,2.909c5.402-11.452,13.278-28.972,17.7-42.64c7.18-22.196,5.689-32.421,2.678-52.455s-39.543-67.905-46.307-90.181
			c-6.764-22.276,34.051-47.392,45.101-61.53c11.051-14.138,15.378-54.091,15.378-54.091S1811.619,1115.836,1802.479,1122.416z"/>
	</g>
	<path style="fill:#96D9C9;" d="M1189.887,1875.023c33.826-43.855,219.314-278.813,340.26-317.968
		c133.504-43.219,7.678,128.437,7.678,128.437s236.831-258.969,323.74-235.622c79.667,21.4,0,181.921,0,181.921
		s89.728-88.888,198.541-88.888c105.9,0-73.986,315.246-83.69,332.12H1189.887z"/>
	<g>
		<g>
			<path style="fill:#256653;" d="M594.754,1873.68c-108.129-147.041-239.586-282.948-395.897-401.133
				c-1.561-1.18-3.666,1.54-2.096,2.748c148.249,113.955,279.406,248.521,389.772,400.589L594.754,1873.68z"/>
		</g>
		<path style="fill:#256653;" d="M286.086,1604.18c3.613-2.563,12.978-12.285,25.473-15.333c11.832-3.997,26.794-1.32,26.278-0.991
			c0.311,0.713-9.855-10.841-25.728-14.2c-15.249-4.452-36.204-0.712-43.052,5.336c-15.542,10.52-16.786,28.387-9.083,31.7
			C267.627,1614.218,277.853,1609.352,286.086,1604.18z"/>
		<path style="fill:#256653;" d="M222.423,1548.094c3.613-2.563,12.978-12.284,25.473-15.333c11.832-3.997,26.794-1.32,26.278-0.99
			c0.311,0.713-9.855-10.841-25.728-14.2c-15.249-4.453-36.204-0.713-43.052,5.336c-15.543,10.519-16.786,28.386-9.084,31.699
			C203.965,1558.132,214.191,1553.266,222.423,1548.094z"/>
		<path style="fill:#256653;" d="M393.237,1579.268c-3.386,2.111-15.435,6.354-20.971,15.979c-6.421,8.671-6.33,22.726-5.885,22.41
			c0.7,0.554-9.703-12.886-10.352-28.005c-1.925-15.013,5.902-31.705,13.585-35.231c14.031-9.284,33.238-3.224,35.341,4.785
			C407.294,1567.26,400.245,1574.189,393.237,1579.268z"/>
		<g>
			<g>
				<path style="fill:#256653;" d="M409.716,1378.834c96.763,151.124,167.384,319.003,207.762,497.352l6.633-1.778
					c-40.209-174.614-110.356-342.199-206.958-493.157c-22.452-35.085-46.695-76.705-88.731-90.391
					c-0.811-0.265-1.118,0.968-0.345,1.26C366.471,1306.586,388.71,1346.027,409.716,1378.834z"/>
			</g>
			<path style="fill:#256653;" d="M400.873,1285.113c-2.491,3.663-12.026,13.217-14.828,25.771
				c-3.763,11.908-0.792,26.814-0.472,26.292c0.719,0.296-11.033-9.64-14.705-25.443c-4.753-15.157-1.426-36.183,4.486-43.148
				c10.21-15.747,28.05-17.343,31.514-9.707C410.545,1266.461,405.882,1276.78,400.873,1285.113z"/>
			<path style="fill:#256653;" d="M377.724,1420.008c3.613-2.563,12.978-12.284,25.473-15.333
				c11.832-3.996,26.794-1.319,26.278-0.99c0.311,0.713-9.855-10.841-25.728-14.2c-15.249-4.453-36.204-0.712-43.052,5.336
				c-15.542,10.519-16.786,28.387-9.083,31.699C359.266,1430.046,369.491,1425.181,377.724,1420.008z"/>
			<path style="fill:#256653;" d="M412.658,1479.13c3.613-2.563,12.977-12.285,25.473-15.333c11.832-3.997,26.793-1.32,26.278-0.99
				c0.31,0.712-9.855-10.841-25.729-14.201c-15.248-4.452-36.204-0.712-43.052,5.336c-15.543,10.52-16.786,28.387-9.083,31.7
				C394.2,1489.168,404.425,1484.302,412.658,1479.13z"/>
			<path style="fill:#256653;" d="M449.753,1352.012c-3.038,3.225-13.96,11.156-18.705,23.11
				c-5.593,11.166-5.009,26.354-4.612,25.889c0.663,0.406-9.375-11.259-10.51-27.443c-2.303-15.717,4.297-35.955,11.233-41.901
				c12.565-13.94,30.434-12.704,32.65-4.617C462.245,1335.117,456.013,1344.572,449.753,1352.012z"/>
			<path style="fill:#256653;" d="M501.123,1419.061c-4.324,2.293-19.426,6.45-27.023,17.753c-8.599,10.058-9.69,27.26-9.119,26.911
				c0.809,0.738-10.765-16.595-10.265-35.146c-1.07-18.532,9.935-38.281,19.637-41.938c17.961-10.157,40.939-1.098,42.825,8.88
				C519.349,1405.574,510.132,1413.448,501.123,1419.061z"/>
			<path style="fill:#256653;" d="M555.191,1520.611c-4.648,1.533-20.235,3.092-29.624,12.955
				c-10.167,8.469-14.137,25.242-13.515,24.995c0.673,0.863-7.822-18.169-4.208-36.372c2.062-18.447,16.231-36.064,26.41-38.037
				c19.413-6.992,40.54,5.803,40.722,15.956C575.425,1510.382,565.015,1516.594,555.191,1520.611z"/>
			<path style="fill:#256653;" d="M311.906,1308.89c2.025-1.674,7.14-7.835,14.398-10.185c6.824-2.882,15.792-1.953,15.501-1.736
				c0.215,0.408-6.304-5.981-15.841-7.274c-9.215-1.967-21.448,1.163-25.234,5.04c-8.734,6.903-8.688,17.527-3.986,19.15
				C301.426,1315.636,307.263,1312.31,311.906,1308.89z"/>
			<path style="fill:#256653;" d="M331.306,1265.735c-0.089,2.626-1.847,10.438,0.723,17.621c1.884,7.165,8.094,13.7,8.089,13.337
				c0.455-0.078-8.586-1.341-15.433-8.104c-7.184-6.099-12.172-17.697-11.414-23.063c0.135-11.132,8.578-17.581,12.733-14.849
				C330.25,1253.316,331.18,1259.97,331.306,1265.735z"/>
		</g>
		<path style="fill:#256653;" d="M176.577,1490.965c2.025-1.674,7.139-7.835,14.397-10.186c6.824-2.882,15.792-1.953,15.501-1.735
			c0.215,0.408-6.304-5.981-15.841-7.274c-9.215-1.967-21.448,1.162-25.235,5.04c-8.733,6.902-8.688,17.526-3.986,19.149
			C166.097,1497.71,171.933,1494.385,176.577,1490.965z"/>
		<path style="fill:#256653;" d="M199.979,1447.438c-0.304,2.61-2.695,10.251-0.723,17.621c1.29,7.295,6.945,14.317,6.969,13.955
			c0.459-0.041-8.448-2.04-14.717-9.342c-6.66-6.666-10.683-18.635-9.486-23.921c1.046-11.083,9.989-16.819,13.906-13.755
			C199.945,1434.976,200.326,1441.682,199.979,1447.438z"/>
	</g>
	<g>
		<path style="fill:#256653;" d="M220.798,1737.767c98.806,10.83,190.829,54.446,279.415,96.976
			c59.738,28.681,56.725,36.851,68.893,41.121c1.971,0.692,3.942-1.449,2.983-3.348c-4.682-9.271-16.954-15.545-25.494-20.877
			c-9.94-6.207-20.325-11.694-30.863-16.811c-22.548-10.947-45.684-20.8-68.668-30.786c-46.758-20.315-94.275-39.425-143.673-52.36
			c-27.081-7.091-54.638-12.205-82.528-14.719C220.344,1736.916,220.283,1737.71,220.798,1737.767L220.798,1737.767z"/>
	</g>
	<path style="fill:#256653;" d="M301.392,1705.852c-0.643,4.052-4.865,15.822-2.261,27.449c1.544,11.465,9.915,22.787,9.977,22.223
		c0.719-0.034-13.05-3.727-22.363-15.523c-9.964-10.83-15.47-29.765-13.264-37.936c2.346-17.227,16.669-25.603,22.585-20.569
		C302.14,1686.401,302.302,1696.891,301.392,1705.852z"/>
	<path style="fill:#256653;" d="M388.436,1737.018c-0.643,4.053-4.865,15.822-2.261,27.449c1.545,11.466,9.916,22.787,9.978,22.224
		c0.719-0.035-13.05-3.727-22.363-15.524c-9.963-10.829-15.47-29.764-13.263-37.936c2.345-17.227,16.668-25.603,22.584-20.569
		C389.185,1717.567,389.347,1728.057,388.436,1737.018z"/>
	<path style="fill:#256653;" d="M476.882,1776.44c-0.642,4.053-4.866,15.823-2.261,27.449c1.544,11.466,9.915,22.788,9.977,22.224
		c0.719-0.035-13.051-3.727-22.363-15.523c-9.964-10.83-15.471-29.765-13.264-37.937c2.345-17.226,16.668-25.602,22.585-20.568
		C477.63,1756.99,477.792,1767.479,476.882,1776.44z"/>
	<path style="fill:#256653;" d="M275.406,1787.178c1.789-3.346,5.246-14.376,13.654-21.49c7.537-7.588,20.024-11.259,19.755-10.809
		c0.51,0.427-11.697-4.537-25.144-1.041c-13.386,2.42-28.012,13.3-30.946,20.553c-7.886,14.004-2.005,28.17,5.164,27.763
		C265.103,1801.928,271.077,1794.289,275.406,1787.178z"/>
	<path style="fill:#256653;" d="M365.947,1819.225c1.789-3.346,5.246-14.376,13.654-21.49c7.537-7.587,20.024-11.259,19.755-10.809
		c0.511,0.428-11.697-4.537-25.144-1.041c-13.386,2.42-28.012,13.3-30.946,20.554c-7.886,14.003-2.005,28.169,5.164,27.762
		C355.643,1833.975,361.617,1826.336,365.947,1819.225z"/>
	<path style="fill:#256653;" d="M206.453,1754.188c1.565-1.864,5.193-8.334,11.413-11.69c5.735-3.769,14.062-4.425,13.833-4.178
		c0.265,0.336-6.746-4.395-15.651-3.976c-8.725-0.249-19.347,4.651-22.147,8.818c-6.802,7.751-4.981,17.423-0.425,18.114
		C198.034,1762.089,202.794,1758.082,206.453,1754.188z"/>
	<path style="fill:#256653;" d="M216.901,1711.621c0.358,2.408,0.065,9.819,3.609,15.934c2.916,6.213,9.669,11.128,9.604,10.798
		c0.4-0.148-8.048,0.215-15.418-4.801c-7.566-4.353-14.055-14.086-14.261-19.103c-1.741-10.164,4.871-17.454,9.115-15.66
		C213.86,1700.483,215.821,1706.389,216.901,1711.621z"/>
	
		<ellipse transform="matrix(0.7071 -0.7071 0.7071 0.7071 -493.7738 1160.6194)" style="fill:#B75742;" cx="1154.105" cy="1176.347" rx="699.584" ry="699.585"/>
	
		<ellipse transform="matrix(0.7071 -0.7071 0.7071 0.7071 -493.7738 1160.6195)" style="fill:#F47458;" cx="1154.105" cy="1176.347" rx="637.963" ry="637.963"/>
	
		<ellipse transform="matrix(0.7071 -0.7071 0.7071 0.7071 -493.7738 1160.6195)" style="fill:#FCF5EB;" cx="1154.105" cy="1176.347" rx="536.469" ry="536.469"/>
	
		<ellipse transform="matrix(0.7071 -0.7071 0.7071 0.7071 -493.774 1160.6194)" style="fill:#F47458;" cx="1154.104" cy="1176.348" rx="403.258" ry="403.258"/>
	
		<ellipse transform="matrix(0.7071 -0.7071 0.7071 0.7071 -493.774 1160.6194)" style="fill:#FCF5EB;" cx="1154.104" cy="1176.348" rx="286.358" ry="286.359"/>
	<path style="fill:#B75742;" d="M1227.127,1176.348c0,40.329-32.693,73.021-73.022,73.021s-73.022-32.692-73.022-73.021
		c0-40.33,32.693-73.022,73.022-73.022S1227.127,1136.018,1227.127,1176.348z"/>
	<g>
		<polygon style="fill:#184655;" points="1602.442,813.889 1599.85,766.447 1760.452,640.83 1752.056,709.523 1594.665,832.628 		
			"/>
		<polygon style="fill:#12353D;" points="1614.315,829.865 1659.735,843.809 1820.338,718.192 1751.646,709.795 1594.255,832.9 		
			"/>
		<path style="fill:#184655;" d="M1148.625,1182.402L1148.625,1182.402c3.652,4.668,10.397,5.493,15.066,1.841l452.477-353.909
			l-13.226-16.908l-452.476,353.91C1145.798,1170.987,1144.974,1177.732,1148.625,1182.402z"/>
	</g>
	<path style="fill:#F7A491;" d="M1823.754,1313.802c0,4.536,1.695,8.212,3.785,8.212c2.091,0,3.786-3.676,3.786-8.212
		c0-4.535-1.695-8.212-3.786-8.212C1825.449,1305.59,1823.754,1309.267,1823.754,1313.802z"/>
	<path style="fill:#F7A491;" d="M1788.08,1846.233c0.985-7.069,1.296-17.93,1.192-30.463h24.759
		c-2.575,17.746-4.591,31.558-4.591,31.558l0.615,5.61l0.017,16.563h-54.167c0,0,11.497-5.15,27.579-15.33
		C1784.674,1853.42,1787.414,1851.02,1788.08,1846.233z"/>
	<path style="fill:#F7A491;" d="M1893.677,1842.072l-7.199-20.628h18.849c0.981,13.24,1.348,22.176,1.348,22.176l4.791,13.563
		l4.867,16.116c0,0-16.032,4.132-24.442-0.513l0.934-16.044L1893.677,1842.072z"/>
	<path style="fill:#F7CC7F;" d="M1795.905,1393.735c6.536-8.936,33.506-34.818,36.501-34.766c8.734,0.153,37.402,0.164,43.007,3.011
		l-0.271,49.274c-0.913,4.136-20.704,68.56-19.555,82.662l-0.137,0.132c-16.588,16.019-42.748,14.761-57.918-2.787l0,0
		c0,0,0.065-19.542-2.271-37.369C1791.604,1425.966,1779.668,1415.932,1795.905,1393.735z"/>
	<path style="fill:#F7A491;" d="M1841.195,1331.231c0,0-0.756,18.179,0.877,25.071s3.81,7.413-10.207,9.511
		c-5.505,0.823-10.814,2.053-10.814,2.053s1.438-10.122,1.655-14.394c0.358-7.037-1.62-28.766-1.62-28.766L1841.195,1331.231z"/>
	<path style="fill:#F47458;" d="M1830.521,1340.278c-2.885,1.559-5.578,2.479-8.062,2.861c-0.478-8.584-1.374-18.433-1.374-18.433
		l19.184,6.225C1838.043,1334.649,1834.879,1337.922,1830.521,1340.278z"/>
	<path style="fill:#E25A44;" d="M1892.827,1856.678c7.397,3.296,15.36,1.309,18.563,0.257l1.064,2.866l4.079,13.602
		c0,0-16.234,4.029-24.645-0.615L1892.827,1856.678z"/>
	<path style="fill:#E25A44;" d="M1810.632,1873.615h-56.312c-2.082-0.188-2.59-1.891-1.868-2.939
		c1.487-2.16,8.056-3.745,15.44-7.187c12.952,1.365,40.129-7.577,42.174-10.583
		C1811.246,1858.925,1811.789,1873.358,1810.632,1873.615z"/>
	<path style="fill:#355389;" d="M1814.896,1494.86l33.002,234.766l30.055,108.248h32.696c0,0-7.588-87.211-23.854-118.104
		c0,0-7.103-82.787-14.209-133.418c-1.062-7.568,4.197-27.212,2.826-32.287c-10.541-39.027-19.825-60.147-19.825-60.147
		L1814.896,1494.86z"/>
	<path style="fill:#466EB6;" d="M1835.301,1596.368l-7.638,90.185c0,0,7.807,51.539,2.448,85.736
		c-5.359,34.196-12.458,65.585-12.458,65.585h-30.055l-5.973-170.309c0,0-11.552-92.538-7.552-117.633s23.459-58.671,23.459-58.671
		l47.276,2.162c0,0,12.821,45.938,10.653,61.355C1853.854,1566.227,1835.301,1596.368,1835.301,1596.368z"/>
	<path style="fill:#184655;" d="M1881.783,1441.692c35.73-10.726,26.163-42.223,25.964-41.026c0.104-0.972,3.47-4.939,5.135-8.329
		c6.938-14.122-2.215-31.132-12.699-37.014c6.953-17.959,0.048-35.188-13.045-42.367c-6.608-3.624-12.168-8.777-16.636-14.736
		c-9.914-13.228-27.942-26.544-49.619-22.196c-21.449,5.487,7.267,17.912,4.424,38.546c-1.441,10.46,2.7,8.961,9.162,17.369
		c-9.303,16.349-3.924,43.791,10.337,56.238C1837.815,1417.637,1845.322,1452.637,1881.783,1441.692z"/>
	<path style="fill:#184655;" d="M1855.234,1297.699c4.222,17.407-18.624,30.047-36.715,30.51c-11.756,0.3-17.16-0.907-19.062-13.297
		c-3.083-20.096,5.196-32.346,16.797-37.416C1831.224,1270.954,1851.752,1283.338,1855.234,1297.699z"/>
	<path style="fill:#F7A491;" d="M1828.667,1285.988c0,0,7.952,2.676,12.191,10.706s2.132,33.745-15.506,42.226
		s-25.744-10.777-24.465-24.987C1802.167,1299.722,1807.275,1281.128,1828.667,1285.988z"/>
	<path style="fill:#FFFFFF;" d="M1817.648,1325.571l-12.517-0.191c0,0,0.216,4.845,5.718,5.091
		C1817.559,1330.771,1817.648,1325.571,1817.648,1325.571z"/>
	<path style="fill:#184655;" d="M1847.127,1316.154c2.609-13.289,1.588-23.361-7.854-28.225s-17.512-9.684-25.961-0.943l-1.91,1.076
		c0,0,15.943,4.407,16.833,12.875c0.89,8.467,9.366,18.532,8.061,22.691c-1.306,4.158-2.811,12.453-2.811,12.453l3.491-2.871
		C1836.977,1333.211,1844.518,1329.443,1847.127,1316.154z"/>
	<path style="fill:#F7A491;" d="M1830.692,1311.068c-1.316,3.67-0.321,7.354,2.224,8.229s5.676-1.391,6.993-5.061
		s0.322-7.354-2.224-8.229C1835.141,1305.132,1832.01,1307.398,1830.692,1311.068z"/>
	<path style="fill:#F7CC7F;" d="M489.874,1627.597h162.402l-38.759,246.578h16.753l218.6-1390.699h-16.753l-3.293,20.953H666.085
		l3.288-20.953h-16.754L433.808,1874.175h16.753L489.874,1627.597z M768.481,888.323l-26.81,170.562H579.099l26.759-170.562H768.481
		z M608.094,874.066l26.759-170.563h162.679l-26.81,170.563H608.094z M739.43,1073.141l-26.811,170.563H550.102l26.759-170.563
		H739.43z M710.379,1257.96l-26.811,170.563H521.107l26.759-170.563H710.379z M826.583,518.685l-26.811,170.563H637.09
		l26.759-170.563H826.583z M492.111,1613.341l26.759-170.563h162.456l-26.81,170.563H492.111z"/>
	<g>
		<path style="fill:#F79C8D;" d="M1181.742,253.993c-0.177,0.624-1.527,4.903-3.599,11.277l21.721,4.381
			c0.227-3.554,0.445-6.523,0.701-8.677c1.789-15.066,8.865-19.157,12.508-27.523s17.774-13.672,16.031-16.509
			c-1.743-2.837-14.907,8.654-18.069,7.423c-3.161-1.23,11.262-18.518,9.528-20.823c-3.194-4.244-16.903,18.129-18.514,16.281
			c-1.61-1.848,11.417-25.462,6.202-25.76c-5.215-0.298-10.996,25.556-13.736,24.417c-2.74-1.138,7.585-23.823,2.337-27.208
			c-2.806-1.809-12.758,40.37-17.197,42.802s-10.691-14.194-14.928-12.783C1160.49,222.704,1182.48,251.384,1181.742,253.993z"/>
		<path style="fill:#F79C8D;" d="M979.516,164.33c-0.097,0.642-0.631,5.096-1.373,11.757l-21.595-4.967
			c1.26-3.331,2.286-6.126,2.941-8.194c4.584-14.463-0.176-21.108-0.043-30.231c0.132-9.124-10.553-19.786-7.794-21.652
			c2.758-1.866,10.011,14.032,13.398,14.215c3.388,0.183-2.621-21.515-0.09-22.899c4.66-2.548,7.92,23.487,10.149,22.468
			c2.229-1.019,0.102-27.905,4.975-26.025c4.874,1.88-0.523,27.816,2.442,27.91c2.966,0.094,2.916-24.832,9.093-25.75
			c3.301-0.491-5.029,42.038-1.988,46.085c3.041,4.047,15.594-8.521,18.871-5.488C1011.781,144.592,979.919,161.648,979.516,164.33z
			"/>
		<path style="fill:#F7CC7F;" d="M1202.464,263.22c0,0-25.877-6.193-26.125-4.115c-5.437,45.521-7.879,61.985-8.799,62.457
			c-3.137,1.613-44.709-36.4-52.121-38.976c-3.545-1.232-7.403-1.027-11.101-0.918c-8.817,0.26-10.558,0.293-10.558,0.293
			c-0.252,0.016-0.323,0.021-0.323,0.021l0.047,8.293c9.935,8.938,32.676,144.322,34.591,144.232
			c2.14-0.1,47.091,11.212,46.299,7.425c-0.129-0.616-30.475-25.448-39.081-61.286c-2.89-12.031-4.316-24.986-5.882-36.324
			c9.986,5.008,48.995,24.205,55.177,21.669C1203.82,358.103,1202.464,263.22,1202.464,263.22z"/>
		<path style="fill:#F7A491;" d="M1279.874,503.601c0,0,41.821,32.759,43.217,38.567c2.01,8.366,40.306-2.632,31.07-4.335
			c-2.124-0.391-8.925-2.116-9.483-2.415c-2.99-1.598-40.203-46.441-40.203-46.441L1279.874,503.601z"/>
		<path style="fill:#F7CC7F;" d="M1372.119,537.833l-26.701-2.174c0,0-7.632,6.317-22.301,6.613c0,0-2.345,6.7-1.23,14.533
			c0.193,1.352,0.419,5.435,1.781,5.342c4.935-0.335,18.077-3.606,33.053-6.601c0,0,20.127-4.262,31.752-11.217
			C1400.097,537.375,1372.119,537.833,1372.119,537.833z"/>
		<path style="fill:#355389;" d="M1092.486,421.426c0,0,30.625,5.146,64.497-2.778c39.192-9.169,82.53-17.645,95.228-10.263
			c10.221,5.942,74.046,102.385,74.046,102.385l-24.647,17.986l-70.276-78.694c0,0-89.661,33.082-109.798,29.416
			C1075.672,471.127,1075.02,434.501,1092.486,421.426z"/>
		<path style="fill:#F7A491;" d="M1188.242,568.305c0,0-1.863,50.582-3.019,59.147c-1.149,8.527,21.466,34.216,18.576,25.281
			c-0.665-2.055-2.378-8.858-2.38-9.493c-0.015-3.39,8.386-61.092,8.386-61.092L1188.242,568.305z"/>
		<path style="fill:#F7CC7F;" d="M1218.261,671.16l-16.701-27.154c0,0-9.185-3.714-16.415-16.481c0,0-7.009,1.12-13.372,5.822
			c-1.098,0.811-8.577,6.282-8.057,7.543c1.919,4.645,12.104,14.595,23.241,25.462c0,0,15.787,12.733,27.43,19.658
			C1226.028,692.935,1218.261,671.16,1218.261,671.16z"/>
		<path style="fill:#466EB6;" d="M1237.881,468.58c-10.71-14.281-97.14-27.844-97.14-27.844l-24.1-46.321l-53.292,32.863
			c0,0,5.327,42.406,9.326,53.736c5.329,15.1,41.143,15.869,63.018,15.644c20.126-0.207,56.89,3.897,56.89,3.897l-12.435,109.693
			c0,0,24.44,5.562,31.309,4.663C1212.233,614.809,1251.204,486.344,1237.881,468.58z"/>
		<path style="fill:#184655;" d="M1093.733,282.058l-30.064,1.679c0,0-0.691,0.211-0.901,0.25
			c-2.449,0.454-0.224,88.074,1.96,120.799c2.185,32.726,6.615,46.474,6.615,46.474s40.779-7.24,53.292-12.098
			c5.194-2.016,17.764-17.731,17.764-17.731s-12.842-17.265-19.311-45.309c-4.989-21.629-11.142-59.971-14.663-67.974
			C1100.339,289.768,1093.733,282.058,1093.733,282.058z"/>
		<path style="fill:#F7A491;" d="M1064.522,257.19l-0.854,26.547c0,0,19.463,33.537,29.456,28.863
			c8.385-3.922,0.942-29.432,0.942-29.432s-1.452-5.849-3.465-12.569c-1.407-4.695-2.577-9.782-2.491-13.514
			C1088.321,248.012,1064.522,257.19,1064.522,257.19z"/>
		<path style="fill:#F47458;" d="M1088.11,257.085c0.21-9.073-23.588,0.105-23.588,0.105l-0.083,2.594
			c0.802,1.208,1.686,2.232,2.657,3.02c6.398,5.195,15.651,7.533,23.175,6.671C1089.016,265.106,1088.031,260.521,1088.11,257.085z"
			/>
		<g>
			<path style="fill:#F7CC7F;" d="M1087.775,196.643c0,0,9.918,14.951,10.659,27.534c0.74,12.583-1.925,21.169-1.925,21.169
				l-31.827-38.044L1087.775,196.643z"/>
			<path style="fill:#F48C7F;" d="M1101.729,221.602c0.448,4.406-1.264,8.189-3.825,8.451c-2.561,0.261-5.001-3.099-5.449-7.504
				c-0.448-4.406,1.264-8.189,3.825-8.451C1098.841,213.836,1101.28,217.196,1101.729,221.602z"/>
			<path style="fill:#F7A491;" d="M1054.384,213.395c-0.729-0.155-0.659,36.471,9.958,45.09c10.616,8.619,29.093,9.375,34.489,0.694
				c5.968-9.603,0.291-48.196-15.499-56.393C1067.543,194.59,1054.384,213.395,1054.384,213.395z"/>
			<path style="fill:#F7CC7F;" d="M1051.692,190.684c-8.105,7.105-12.028,12.296-17.512,24.93
				c-6.742,15.533,6.635,31.627,17.852,38.023c11.217,6.395,12.15,14.128,12.15,14.128l0.462-4.767
				c0.222-1.744,0.158-3.158-0.144-4.384c-0.355-1.441-1.016-2.628-1.596-3.868c-0.955-2.041-4.021-9.035-5.218-10.881
				c-3.156-4.868-3.778-5.921-2.22-10.547c1.2-3.562-0.189-11.413,1.665-17.283l15.1-3.257c0,0,9.449-2.271,14.22-7.776
				C1100.152,189.196,1073.065,171.572,1051.692,190.684z"/>
			<path style="fill:#F7A491;" d="M1059.058,237.325c1.86,4.02,1.474,8.154-0.863,9.236c-2.336,1.082-5.737-1.3-7.597-5.319
				c-1.859-4.02-1.474-8.154,0.863-9.236C1053.797,230.924,1057.198,233.306,1059.058,237.325z"/>
		</g>
		<path style="fill:#F7CC7F;" d="M1063.669,283.737c0,0-29.81-1.389-37.5-4.868c-4.664-2.109-42.966-32.973-42.966-32.973
			l0.43-82.636l-26.938-2.049c0,0-13.967,91.339-9.129,101.337c4.996,10.325,61.062,52.83,72.275,71.274
			c6.459,10.626,19.931,155.142,21.97,156.443c14.507,7.55,59.306,15.09,58.251,10.51
			C1070.898,374.208,1063.669,283.737,1063.669,283.737z"/>
		<path style="fill:#FFFFFF;" d="M1076.386,246.863l17.353-5.509c0,0,1.692,6.718-5.869,9.361
			C1078.65,253.938,1076.386,246.863,1076.386,246.863z"/>
	</g>
	<path style="fill:#F7CC7F;" d="M1816.784,568.437c2.235-0.377,3.358-3.33,2.218-5.188c-1.834-2.989-3.619-6.009-5.42-9.018
		c-3.979-6.645-4.341-6.783-4.018-7.541c0.771-1.809,4.18-0.983,5.405-0.563c2.718,0.933,5.224,2.562,8.114,2.929
		c5.641,0.717,9.743-3.595,7.236-9.059c-2.296-5.001-4.895-9.91-7.516-14.779c6.046,1.238,12.063,2.649,18.122,3.799
		c2.149,0.408,3.626-1.506,2.761-3.496c-1.924-4.424-7.621-17.524-9.5-21.843c-0.485-1.116-3.364-6.054-2.369-6.999
		c0.894-0.849,5.041,0.302,5.992,0.44c5.259,0.765,7.125,0.962,24.287,3.058c2.046,0.25,3.755-2.544,2.537-4.246
		c-11.988-16.747-9.896-18.271-14.167-20.618c-0.957-0.526-1.865,0.123-2.015,1.111c-0.383,2.519-0.296,3.147,4.22,11.135
		c1.168,2.066,2.387,4.101,3.655,6.104c-20.794-2.942-25.965-4.181-28.779,0.486c-1.953,3.239-1.008,4.12,9.84,28.885
		c-6.273-1.626-12.608-2.864-18.963-4.228c-2.412-0.518-4.183,1.762-3.148,3.985c8.315,17.873,9.258,18,9.565,19.772
		c0.009,0.049,1.098,0.299-0.53,0.153c-2.765-0.248-7.85-4.266-13.139-3.652c-4.653,0.54-9.085,4.342-8.031,9.413
		c0.612,2.945,1.709,3.989,7.243,13.832c-5.458,1.08-10.764,2.806-16.204,5.302c-2.359,1.082-3.77,2.097-5.244,4.25
		c-1.204,1.759,0.293,4.605,2.464,4.483C1797.562,576,1800.236,571.227,1816.784,568.437z"/>
	<path style="fill:#F47458;" d="M1926.023,617.867c-0.777-5.242-1.149-10.26-1.008-15.76c0.027-1.037-0.153-2.969,0.896-3.619
		c2.524-1.565,6.301,2.774,16.002,4.893c4.209,0.92,12.832,3.192,14.68-2.464c0.947-2.899,0.332-6.56,0.321-9.566
		c-0.009-2.282,0.073-4.564,0.106-6.845c15.753,4.444,14.853,5.367,18.423,3.81c0.928-0.404,1.41-1.821,0.858-2.694
		c-2.047-3.238-1.632-2.314-21.437-8.118c-1.809-0.529-4.028,0.723-4.019,2.776c0.015,3.088,0.827,17.081,0.652,18.812
		c-0.162-0.111-0.915,0.031-1.079,0.026c-6.576-0.229-12.105-2.609-18.072-5.07c-4.891-2.018-11.531-2.055-13.063,4.203
		c-0.831,3.395-0.485,10.403,0.02,15.799c-9.591-3.068-19.164-6.208-28.769-9.212c-1.88-0.588-4.581,0.806-4.428,3.059
		c0.425,6.257,0.637,12.509,0.8,18.771c-5.637-1.853-10.964-4.583-15.797-8.072c-3.563-2.571-8.092,2.418,1.334,8.287
		c5.17,3.453,10.849,5.974,16.938,7.578c2.015,0.531,4.432-0.755,4.439-3.066c0.02-6.201-0.244-12.415-0.628-18.61
		c9.589,2.937,19.216,5.778,28.804,8.72C1924.353,622.225,1926.368,620.193,1926.023,617.867z"/>
	<path style="fill:#3CB4C5;" d="M1959.201,743.498c0.038,1.908,1.254,3.125,3.055,3.45c8.808,1.589,17.526,2.406,26.372,0.898
		c4.602-0.784,2.958-7.634-1.541-7.148c-7.054,0.763-14.335,1.167-21.456,0.252c0.172-5.292,0.854-10.525,2.152-15.648
		c0.493-1.945-0.792-4.561-3.074-4.498c-5.687,0.158-27.195,1.405-27.385,1.637c0.018-0.041,0.055-0.189-0.016-0.573
		c-0.42-2.291,1.262-10.062,1.087-13.613c-0.197-3.986-5.493-5.435-8.704-5.743c-6.512-0.626-13.729,4.073-20.072,1.544
		c-6.1-2.431,0.763-11.998-4.155-19.476c-3.789-5.763-10.31-4.03-20.597-2.047c-2.524,0.486-4.984,0.99-6.257,3.474
		c-0.314,0.613-0.369,1.516,0.2,2.046c3.095,2.878,6.811,1.581,16.213,0.026c1.198-0.198,3.22-0.907,4.284-0.023
		c3.55,2.947-1.648,11.046,2.556,17.875c3.274,5.32,9.826,6.298,15.389,5.628c4.359-0.525,9.738-3.063,14.162-1.49
		c-0.243,3.785-0.59,7.604-0.542,11.381c0.052,4.127,2.16,7.002,6.316,7.344c4.596,0.378,9.376-0.253,13.962-0.463
		c3.087-0.142,6.174-0.27,9.258-0.439C1959.532,733.034,1959.097,738.227,1959.201,743.498z"/>
	<path style="fill:#3CB4C5;" d="M1705.824,503.205c-24.602-20.176-37.137-2.021-30.058,6.354c3.033,3.588,8.425,3.881,11.142-0.182
		c1.243-1.86-0.591-4.934-2.906-4.209c-1.917,0.6-2.369-1.577-0.336-2.419c2.74-1.134,6.072,0.876,8.434,2.127
		c5.512,2.918,12.699,6.627,13.637,13.538c1.397,10.312-9.089,21.221-24.627,15.208c-22.413-8.673-21.346-45.343,2.424-51.431
		c12.933-3.313,26.83,2.18,34.764,12.818c1.551,2.079,4.32-0.355,3.484-2.44c-6.342-15.792-26.5-21.812-41.788-16.459
		c-15.682,5.49-23.491,22.018-21.15,37.995c2.455,16.754,16.78,30.693,34.26,28.904
		C1712.272,541.046,1723.024,517.31,1705.824,503.205z"/>
	<path style="fill:#3C8F7C;" d="M1948.104,799.356c-4.014-2.806-12.293-4.531-14.99,0.933c-1.254,2.539-0.553,5.674,2.401,6.642
		c2.89,0.947,5.582-0.605,7.813,2.068c1.913,2.292,0.762,5.582-0.984,7.636c-5.322,6.264-16.668,4.343-23.026,0.866
		c-10.1-5.521-11.859-19.973-0.967-26.89c3.407-2.164,7.368-2.636,11.218-3.533c2.127-0.497,3.151-3.866,0.903-5.001
		c-8.649-4.369-19.319,1.238-24.443,8.592c-5.378,7.719-5.163,18.717-0.178,26.584c5.57,8.789,16.806,13.164,26.916,13.053
		C1953.773,830.074,1961.107,808.445,1948.104,799.356z"/>
	<g>
		<g>
			<path style="fill:#F8A492;" d="M1533.148,1447.658c-0.644,2.219-1.015,2.955-1.833,4.445c-5.28,9.61-17.531,23.324-17.531,23.324
				l-9.478-21.352c0,0,1.545-6.704,4.225-16.288C1517.685,1440.178,1526.402,1441.562,1533.148,1447.658z"/>
			<path style="fill:#466EB6;" d="M1478.813,1429.138c0,0,52.858,22.763,54.567,22.328c1.101-0.28,21.682-34.729,21.901-67.125
				c0.102-14.962-15.437-32.96-32.774-29.4c-8.728,1.792-8.593,4.22-21.506,22.983
				C1488.089,1396.688,1478.813,1429.138,1478.813,1429.138z"/>
			<path style="fill:#F7A491;" d="M1433.691,1837.243c0,0,1.254,20.76,1.262,20.803c0.461,2.636,2.276,9.147,2.276,11.543
				c0,9.001-42.742-7.641-33.163-11.63c0.867-0.361,5.409-3.092,5.694-6.155c0.439-4.721,1.554-14.27,1.554-14.27L1433.691,1837.243
				z"/>
			<path style="fill:#3C8F7C;" d="M1404.172,1857.874c0,0,10.035,2.753,15.175,3.441s11.916-5.107,15.551-3.542
				c4.002,1.723,3.845,17.234,3.845,17.234s-53.814,4.416-68.946-0.152C1363.802,1873.046,1383.657,1864.287,1404.172,1857.874z"/>
			<path style="fill:#F7A491;" d="M1521.128,1837.243c0,0,1.254,20.76,1.262,20.803c0.461,2.636,2.276,9.147,2.276,11.543
				c0,9.001-42.743-7.641-33.164-11.63c0.867-0.361,6.757-5.131,7.042-8.193c0.439-4.721,0.207-12.231,0.207-12.231
				L1521.128,1837.243z"/>
			<path style="fill:#3C8F7C;" d="M1491.608,1857.874c0,0,10.035,2.753,15.175,3.441s11.915-5.107,15.551-3.542
				c4.001,1.723,4.161,17.234,4.161,17.234s-54.058,5.147-69.263-0.152C1451.329,1872.798,1471.094,1864.287,1491.608,1857.874z"/>
			<g>
				<path style="fill:#F7A491;" d="M1517.16,1321.069l4.846,30.647c0,0-18.465,14.827-29.229,11.699
					c-9.031-2.624-2.838-14.432-2.838-14.432s4.812-16.36,3.335-24.937C1491.798,1315.473,1517.16,1321.069,1517.16,1321.069z"/>
				<path style="fill:#FE875E;" d="M1513.681,1330.335c-4.628,2.186-13.778,5.168-20.898,5.89c0.682-4.288,1.069-8.825,0.492-12.177
					c-0.682-3.957,4.354-4.894,9.975-4.758c7.354,0.631,13.911,1.779,13.911,1.779l0.932,5.89
					C1516.693,1328.435,1515.223,1329.607,1513.681,1330.335z"/>
				<path style="fill:#F7A491;" d="M1540.463,1285.719c0.762,0.004-7.299,34.238-19.773,40.128c-12.476,5.891-31.08,2.82-34.571-6.4
					c-3.861-10.199,10.224-45.128,27.77-49.565S1540.463,1285.719,1540.463,1285.719z"/>
				<path style="fill:#13375B;" d="M1526.027,1254.262c9.965,5.747,14.538,14.271,16.077,17.762
					c4.677,2.22,10.336,7.021,13.052,19.955c3.341,15.903-8.534,28.163-21.125,31.851c-12.59,3.688-14.534,12.019-14.534,12.019
					l-1.428-8.966c0,0,2.801-7.806,7.012-11.713c4.212-3.907-1.995-9.601-2.54-14.245c-0.421-3.576,2.213-10.52,1.643-16.388
					c0,0-6.996-10.602-13.893-13.222C1498.535,1266.849,1513.242,1246.887,1526.027,1254.262z"/>
				<path style="fill:#F7A491;" d="M1520.725,1306.885c-1.631,3.954-0.965,7.88,1.488,8.769c2.452,0.889,5.763-1.597,7.394-5.551
					c1.63-3.954,0.964-7.88-1.489-8.769C1525.665,1300.445,1522.354,1302.931,1520.725,1306.885z"/>
			</g>
			<path style="fill:#F8A492;" d="M1474.255,1460.01l-72.613-11.839c0,0,8.262-20.8,11.214-20.8
				c2.951,0,54.905,22.681,54.905,22.681l4.133,8.298L1474.255,1460.01z"/>
			<path style="fill:#184655;" d="M1511.449,1509.796c0,0,7.244,35.02,4.292,61.572s-3.185,120.877-3.185,120.877l11.265,150.919
				l-26.728,0.583c0,0-31.694-150.847-31.104-146.975c0.59,3.873-10.627-106.211-10.627-106.211l37.784-84.085L1511.449,1509.796z"
				/>
			<path style="fill:#13375B;" d="M1504.364,1508.137c0,0,4.724,31.531-1.181,45.361c-5.903,13.829-50.638,149.523-51.228,160.587
				c-0.591,11.063-15.467,133.351-15.467,133.351l-31.079-0.874l-6.725-135.959l14.079-170.88l13.67-43.203L1504.364,1508.137z"/>
			<path style="fill:#F7A491;" d="M1522.006,1351.717c0,0-7.663,5.029-14.812,4.446c-7.148-0.582-17.255-7.179-17.255-7.179
				l1.404-4.761c0,0,18.492-2.693,18.958-2.402C1510.769,1342.112,1522.006,1351.717,1522.006,1351.717z"/>
			<path style="fill:#F8A492;" d="M1440.322,1426.345c0,0-27.467,25.92-39.865,21.495c-12.397-4.426-17.528-19.554,12.723-41.686
				C1440.253,1386.347,1440.322,1426.345,1440.322,1426.345z"/>
			<path style="fill:#50BFA5;" d="M1421.711,1458.35c4.08-22.198,33.652-91.275,36.014-103.999
				c1.148-6.188,17.099-6.324,32.292-5.517c16.048,0.854,31.989,2.883,31.989,2.883s14.207,2.334,20.458,8.19
				c6.25,5.856,7.911,22.055-1.075,52.803c-7.093,24.272-15.885,37.6-20.237,55.279c-0.881,5.931-1.636,11.781-2.637,18.617
				c-1.6,26.436,0.02,61.359,0.02,61.359s-77.341,16.042-106.27-8.298C1412.265,1539.668,1417.53,1481.093,1421.711,1458.35z"/>
			<path style="fill:#466EB6;" d="M1401.991,1410.62c0,0,30.347,25.049,32.118,25.049c1.141,0,43.306-31.018,53.039-56.5
				c5.381-14.088-5.905-29.849-18.797-29.797c-8.936,0.036-12.908,2.339-30.619,17.274
				C1420.021,1381.583,1401.991,1410.62,1401.991,1410.62z"/>
		</g>
		<path style="fill:#FFFFFF;" d="M1488.283,1304.639l11.387,6.243c0,0-2.983,4.789-8.082,2.209
			C1485.372,1309.944,1488.283,1304.639,1488.283,1304.639z"/>
	</g>
	<g>
		<path style="fill:#F7A491;" d="M767.01,1438.145c-0.892-2.556,11.534-4.619,12.195-7.203c0.662-2.585-15.689-2.786-16.274-5.057
			c-1.079-4.183,17.92-0.881,17.546-2.837c-0.374-1.956-19.799-6.326-17.7-9.683c2.1-3.356,19.669,6.633,20.202,4.355
			c0.532-2.278-17.175-7.82-16.858-12.813c0.169-2.668,29.062,13.31,32.413,11.858c3.351-1.451-3.604-13.994-0.937-15.855
			c2.668-1.861,10.325,25.494,12.166,26.406c1.835,0.91,40.872,23.189,54.761,26.731c1.687-4.652,21.577-33.45,23.065-37.849
			c7.793,5.546,15.787,6.307,23.83,11.362c-5.826,14.603-32.572,55.137-36.631,56.971c-12.36,5.584-60.164-34.063-69.706-40.848
			c-9.551-6.791-15.016-4.59-21.474-6.734C777.149,1434.805,767.902,1440.699,767.01,1438.145z"/>
		<path style="fill:#184655;" d="M1032.241,1332.36c-7.155-19.063-25.847-30.604-45.312-27.037
			c-5.973-9.642-15.932-16.797-26.766-19.118c-21.372-4.579-50.274,3.863-49.495,26.494c-8.29,15.202-8.609,36.937,4.077,48.501
			c-4.414,20.44,14.733,40.209,39.622,39.488c8.667,14.292,25.18,23.485,41.6,21.523c3.941-0.471,9.951-1.454,10.947-1.208
			c-1.251-0.229,26.377,20.95,49.789-11.622C1080.594,1376.145,1063.808,1335.906,1032.241,1332.36z"/>
		<g>
			<path style="fill:#F7A491;" d="M965.15,1516.19c0.71,0.295-9.392,13.314-19.232,22.521c-7.935,9.955-15.377,21.743-17.938,34.596
				c-3.895,19.54-0.655,116.082-4.045,122.953c-29.118,28.467-50.204,99.91-56.123,121.707c-1.154,4.248-3.491,8.076-6.731,11.056
				l0,0l1.295,24.631l14.468,13.327c0,0-3.218-20.072,3.212-34.958c0,0,73.312-111.027,77.665-119.514
				c8.315-24.168,38.593-147.994,38.593-147.994l7.028-28.463C1003.343,1536.053,965.21,1516.215,965.15,1516.19z"/>
			<path style="fill:#355389;" d="M845.233,1836.948c0,0,9.157,14.11,9.939,19.61c0.783,5.499,5.66,17.974,11.054,18.762
				c1.225,0.179,22.205,1.719,22.052-0.903c-0.116-2.004-7.71-4.864-11.237-7.3c-6.096-4.21-15.557-38.496-15.557-38.496
				S845.628,1832.553,845.233,1836.948z"/>
		</g>
		<path style="fill:#F79C8D;" d="M968.213,1365.402c0,0,30.68-55.18,38.145-66.909c7.464-11.729,26.908-58.341,27.604-60.178
			c0.695-1.837-13.391-23.895-10.247-24.649c3.145-0.756,6.623,11.629,9.978,10.149c3.354-1.479,13.153-31.294,15.064-29.815
			c3.577,2.768-5.281,18.495-3.375,19.486c1.907,0.99,7.683-17.304,11.427-16.766c3.744,0.538-7.121,16.769-6.074,18.201
			c1.047,1.434,12.327-13.858,14.368-10.598c1.108,1.77-10.371,13.349-8.167,14.433s12.416-6.39,13.498-4.234
			c1.081,2.155-9.444,5.106-12.592,10.917s-8.507,8.322-10.733,19.081c-2.227,10.76-5.553,49.695-16.955,69.121
			c-11.402,19.426-36.477,62.419-36.477,62.419L968.213,1365.402z"/>
		<path style="fill:#F7A491;" d="M1027.812,1558.976c0,0,47.22,100.964,47.521,118.716c0.258,15.217-8.253,100.587-5.877,171.682
			c0.086,2.567,3.336,5.979,8.069,8.147c2.663,1.22,15.521,6.964,15.521,6.964l1.767,4.6l-44.286-3.154l-0.631-12.089
			c0,0-17.625-106.353-15.829-136.431c0.282-4.726,2.579-33.014,2.579-33.014l-53.254-102.819l33.494-44.013L1027.812,1558.976z"/>
		<g>
			<path style="fill:#F47458;" d="M919.573,1680.26c0.008,0.018,0.014,0.016,0.018-0.004
				C919.589,1680.256,919.573,1680.26,919.573,1680.26z"/>
			<path style="fill:#3C8F7C;" d="M987.118,1395.271c1.27-7.764,13.283-27.189,15.178-31.952c0,0-13.926-17.7-25.232-16.36
				c0,0-15.193,25.188-23.832,26.034c-8.637,0.847-39.021,2.164-44.347,5.396c-5.326,3.231-27.925,37.93-27.925,37.93
				s20.308,20.739,28.478,20.695c0,0,4.343-8.549,6.073-10.419c1.231,3.972,20.152,65.276,20.125,79.162l0.146,0.118
				c17.688,14.346,43.495,11.029,57.137-7.344l0,0c0,0-1.604-19.11-0.695-36.733
				C993.649,1434.189,999.237,1419.516,987.118,1395.271z"/>
			<path style="fill:#F7CC7F;" d="M1085.6,1632.43l-92.681-133.898c-5.718,2.315-11.12,4.33-17.23,5.51
				c-13.289,2.566-26.597,2.152-40.053,1.716c0,0.502-0.027,0.942-0.079,1.315c-1.546,11.038-16.188,28.13-19.206,61.627
				c-3.426,38.024-1.354,104.07-0.193,108.406C977.773,1669.616,1068.116,1650.777,1085.6,1632.43z"/>
		</g>
		<path style="fill:#F7A491;" d="M937.602,1350.671c0,0,3.259,17.556,2.607,24.479c-0.652,6.925,2.486,29.242,16.562,29.315
			c14.076,0.073,2.673-28.374,1.347-35.159c-1.326-6.786-1.64-27.791-1.64-27.791L937.602,1350.671z"/>
		<path style="fill:#F47458;" d="M956.769,1352.055c-0.219-5.746-0.291-10.539-0.291-10.539l-18.876,9.155
			c0,0,0.666,3.59,1.336,8.163C947.201,1360.563,953.188,1357.379,956.769,1352.055z"/>
		<path style="fill:#F7A491;" d="M930.703,1302.222c0,0-7.274,4.202-9.933,13.309c-2.659,9.107,0.368,32.606,19.157,38.277
			c18.789,5.67,26.929-12.938,23.059-27.485C959.116,1311.773,950.698,1293.351,930.703,1302.222z"/>
		<path style="fill:#F7A491;" d="M965.335,1320.684c-0.368,3.907-2.438,6.894-4.624,6.67c-2.186-0.223-3.66-3.571-3.292-7.479
			c0.368-3.907,2.439-6.895,4.624-6.671C964.23,1313.428,965.704,1316.775,965.335,1320.684z"/>
		<path style="fill:#F7A491;" d="M926.18,1335.742c2.208,3.416,2.199,7.444-0.018,8.998c-2.217,1.553-5.803,0.043-8.011-3.372
			c-2.207-3.415-2.199-7.443,0.018-8.997C920.386,1330.817,923.973,1332.327,926.18,1335.742z"/>
		<path style="fill:#355389;" d="M1050.376,1874.359h55.946c2.069-0.185,2.573-1.854,1.856-2.885
			c-1.478-2.119-8.004-3.675-15.34-7.052c-12.868,1.34-40.888-7.453-42.918-10.402
			C1048.749,1859.926,1049.227,1874.107,1050.376,1874.359z"/>
		<path style="fill:#FFFFFF;" d="M940.282,1339.629l12.008-3.536c0,0,1.089,4.726-4.146,6.437
			C941.761,1344.615,940.282,1339.629,940.282,1339.629z"/>
	</g>
	<g>
		<path style="fill:#3C8F7C;" d="M635.581,1062.442c1.563,0.064,5.848,1.499,12.114,13.341
			c8.002,15.122,19.697,60.804,19.697,60.804l-34.909,13l-4.485-9.534l-7.386-73.406
			C620.612,1066.646,635.147,1062.425,635.581,1062.442z"/>
		<path style="fill:#96D9C9;" d="M589.435,1055.857c9.982,0.014,34.681,2.926,46.145,6.589c0,0,8.421,72.382-7.582,127.383
			c-3.583,12.313,2.963,51.038,2.963,51.038l-103.438-1.365c0,0,12.254-93.621,7.638-108.744
			c-4.616-15.121-4.726-67.824-4.726-67.824s0.708-0.111,23.24-4.006C564.183,1057.111,578.777,1055.844,589.435,1055.857z"/>
		<path style="fill:#F7A491;" d="M577.382,1375.212c0,0,2.288,26.412,6.496,33.726c4.208,7.314-0.221,19.748-0.443,21.455
			c-0.221,1.706-8.857,4.145-22.587,2.682c-13.73-1.463-13.508-4.633-12.401-9.752c1.107-5.12,8.414-11.703,8.857-16.578
			c0.443-4.877-4.208-22.43-4.208-22.43L577.382,1375.212z"/>
		<path style="fill:#355389;" d="M619.29,1219.067c0,0,71.404-3.965,87.349,5.692c15.945,9.656-11.328,57.05-11.328,57.05
			s-49.685-2.29-147.004,3.326c-23.046,1.33-25.032-60.089-20.723-65.172C531.893,1214.882,619.29,1219.067,619.29,1219.067z"/>
		<path style="fill:#13375B;" d="M559.135,1435.124c-14.138-1.506-12.389-8.452-11.249-13.724c0.714-3.301,4.77-7.192,7.187-10.874
			c1.264,1.007,3.32,2.784,9.459,4.598c6.375,1.884,15.115-1.844,20.685-4.178c1.985,7.387,2.075,16.808,1.89,18.236
			C586.878,1430.94,573.273,1436.631,559.135,1435.124z"/>
		<path style="fill:#466EB6;" d="M566.938,1270.15c2.853,21.587,16.978,129.051,16.978,129.051l-32.773,4.063
			c0,0-40.303-140.267-38.236-161.721c2.067-21.454,17.153-23.26,17.153-23.26S559.388,1213.006,566.938,1270.15z"/>
		<path style="fill:#F7A491;" d="M529.308,1070.979c9.671-3.628,14.402,83.513,15.706,119.38
			c17.127,1.648,46.979,0.013,54.411-0.545c3.496-0.263,11.557-3.215,15.033-3.671c3.563-0.467,6.792-0.709,8.544-0.404
			c0.643,0.111,18.495,7.412,20.022,9.014c1.894,1.985,7.014,6.993,6.149,9.159c-0.864,2.165-9.847-6.034-9.847-6.034l-4.39-2.463
			c5.465,5.339,15.889,12.37,14.388,14.931c-1.464,2.497-10.868-4.639-17.569-9.502c5.748,5.191,12.89,14.482,11.244,15.931
			c-1.479,1.302-9.602-9.454-18.283-12.552c-3.217-1.147-6.423,2.03-8.954,2.415c-1.86,0.282-4.731,0.883-6.556,0.365l-9.399-2.666
			c-3.202,0.29-3.283,2.184-6.516,2.872c-3.754,0.799-9.913,1.64-14.693,2.809c-27.528,6.726-36.709,9.849-45.138,9.844
			C507.932,1219.845,506.451,1079.553,529.308,1070.979z"/>
		<path style="fill:#3C8F7C;" d="M510.954,1152.789c-1.812-36.74-1.547-82.023,19.048-89.749
			c8.127-3.048,22.452,15.281,19.875,90.495C538.883,1154.442,522.742,1155.174,510.954,1152.789z"/>
		<path style="fill:#F7A491;" d="M673.219,1397.804c0,0-2.859,9.169,2.261,15.232c5.121,6.063,26.398,12.012,29.191,15.296
			c2.793,3.284,2.581,6.081,2.581,6.081l-59.72-1.644l0.651-18.036l2.75-12.96L673.219,1397.804z"/>
		<path style="fill:#13375B;" d="M679.194,1416.06c0,0-15.345,6.207-22.757,2.532c-7.412-3.676-7.189-4.693-9.334-3.323
			c-2.144,1.37-2.913,18.278-2.913,18.278l67.153,1.973c4.673-0.107,7.036-3.549,3.239-6.495c-2.603-2.021-5.612-3.372-7.322-4.353
			C702.008,1421.659,679.194,1416.06,679.194,1416.06z"/>
		<path style="fill:#466EB6;" d="M670.956,1235.992c4.615-9.713,15.113-22.36,33.584-14.743
			c17.617,7.265,22.345,25.119,16.787,43.402c-5.558,18.282-42.149,125.759-43.425,140.536l-29.216,0.193
			c0,0,5.31-85.102,6.612-105.672C656.551,1279.917,662.967,1252.804,670.956,1235.992z"/>
		<path style="fill:#12353D;" d="M718.384,1137.003h-97.662c-2.583,0-4.912,1.566-5.892,3.966l-30.071,73.591h-53.841
			c-1.506,0-2.727,1.224-2.727,2.733l0,0c0,1.51,1.221,2.733,2.727,2.733h153.237c4.213,0,8.033-2.481,9.759-6.338l30.279-67.68
			C726.085,1141.781,723.003,1137.003,718.384,1137.003z"/>
		<path style="fill:#FFFFFF;" d="M665.803,1179.855c-0.66,3.306-3.533,5.516-6.418,4.938c-2.885-0.579-4.689-3.728-4.029-7.033
			c0.66-3.306,3.533-5.516,6.418-4.938C664.659,1173.401,666.463,1176.55,665.803,1179.855z"/>
		<g>
			<path style="fill:#0E2E35;" d="M612.644,967.453c-2.943-0.991-5.841-2.11-8.64-3.459c-3.163-1.525-7.262-3.312-9.851-3.712
				c-5.45-0.841-14.813-0.28-19.984,5.329c-6.442,6.988-17.888,1.262-15.583,37.861c2.61,41.427,25.645,36.88,26.204,36.179
				c0.559-0.701,20.544-26.503,20.544-26.503s6.988,15.285,6.988,14.724C612.321,1027.33,648,979.359,612.644,967.453z"/>
			<path style="fill:#F7A491;" d="M595.157,1042.71l1.989,14.803c0,0,4.454,21.326-1.277,25.438
				c-5.73,4.111-24.37-26.046-24.37-26.046l1.969-37.508L595.157,1042.71z"/>
			<path style="fill:#F47458;" d="M572.832,1031.553c4.733,12.793,16.008,20.657,24.011,23.707l-1.686-12.55l-21.689-23.313
				L572.832,1031.553z"/>
			<path style="fill:#F7A491;" d="M593.98,978.579c12.143-1.96,23.035,7.806,22.731,19.962c-0.132,5.283-0.565,11.881-1.663,18.986
				c-2.64,17.088-14.298,32.134-22.007,30.79c-7.709-1.344-27.105-16.084-23.689-40.4
				C571.46,992.904,581.237,980.636,593.98,978.579z"/>
			<path style="fill:#F7A491;" d="M574.701,1010.819c-0.65,3.758-3.66,6.371-6.723,5.837c-3.062-0.533-5.017-4.013-4.367-7.77
				c0.65-3.758,3.66-6.371,6.723-5.838C573.396,1003.583,575.351,1007.062,574.701,1010.819z"/>
			<path style="fill:#0E2E35;" d="M570.334,1003.049c0,0,9.32,2.316,12.779-3.679c3.458-5.995,15.827-18.931,31.549-13.567
				c15.722,5.364-13.835-13.041-15.093-13.041c-1.258,0-16.351-0.105-16.351-0.105s-11.634,9.57-12.054,10.622
				c-0.419,1.052-3.773,12.515-3.773,12.515L570.334,1003.049z"/>
		</g>
		<path style="fill:#FFFFFF;" d="M587.386,1028.061l16.959,3.242c0,0-1.618,6.389-9.117,5.179
			C586.084,1035.007,587.386,1028.061,587.386,1028.061z"/>
	</g>
	<path style="fill:#12353D;" d="M2056.913,1873.23H288.492c-3.463,0-6.271,2.808-6.271,6.271l0,0c0,3.463,2.808,6.271,6.271,6.271
		h1768.421c3.464,0,6.271-2.808,6.271-6.271l0,0C2063.185,1876.038,2060.377,1873.23,2056.913,1873.23z"/>
	<path style="fill:#F7A491;" d="M1694.964,1417.732c-0.892-2.556,11.534-4.619,12.196-7.204c0.661-2.585-15.689-2.785-16.274-5.056
		c-1.079-4.183,17.92-0.881,17.546-2.837s-19.799-6.326-17.699-9.683s19.67,6.633,20.201,4.355
		c0.532-2.278-17.175-7.82-16.857-12.813c0.17-2.668,29.062,13.31,32.412,11.858c3.352-1.451-3.604-13.994-0.937-15.855
		c2.668-1.861,10.325,25.494,12.166,26.406c1.835,0.91,40.872,23.188,54.762,26.731c1.686-4.652,5.332-10.927,6.819-15.326
		c7.793,5.546,13.579,8.33,21.622,13.386c-5.826,14.603-14.12,30.591-18.18,32.425c-12.36,5.584-60.164-34.063-69.706-40.848
		c-9.551-6.791-15.016-4.59-21.474-6.735C1705.104,1414.393,1695.856,1420.287,1694.964,1417.732z"/>
	<path style="fill:#EAB765;" d="M1839.17,1389.893c3.693,15.205-16.004,49.106-16.004,49.106s-28.061-13.239-32.992-18.944
		c0,0,19.063-32.898,20.313-34.898c5.656-9.056,13.336-9.066,18.343-8.476C1832.85,1377.154,1839.17,1389.893,1839.17,1389.893z"/>
</g>
</svg>
