<svg fill="#00A8E1" version="1.1" id="Capa_1" stroke="#000" stroke-width="1.5" xmlns="http://www.w3.org/2000/svg" xmlns:xlink="http://www.w3.org/1999/xlink" viewBox="0 0 70.071 70.071" xml:space="preserve"><g id="SVGRepo_bgCarrier" stroke-width="0"></g>
<g id="SVGRepo_tracerCarrier" stroke-linecap="round" stroke-linejoin="round"></g><g id="SVGRepo_iconCarrier"> <g> <path d="M55.669,48.465c0.833-1.026,1.166-2.321,0.958-3.74c-0.764-5.242-6.375-5.242-8.223-5.242c-1.211,0-2.471,0.082-3.682,0.16 c-1.638,0.104-3.255,0.223-4.605,0.096c-0.249-0.027-0.504-0.068-0.755-0.101c0.866-1.446,1.307-2.915,1.307-4.403 c0-0.43-0.034-0.838-0.103-1.23c-0.068-0.399-0.181-0.949-0.333-1.647h6.474v-2.385H39.2c-1.115-2.151-1.841-3.648-2.185-4.487 c-0.346-0.834-0.519-1.654-0.519-2.451c0-1.604,0.549-2.966,1.649-4.087c1.102-1.119,2.717-1.679,4.852-1.679 c2.199,0,3.834,0.598,4.913,1.799c1.072,1.198,1.61,2.947,1.61,5.253h4.234c-0.048-3.403-0.944-6.034-2.692-7.899 c-1.747-1.863-4.32-2.79-7.724-2.79c-3.617,0-6.393,0.942-8.329,2.826c-1.938,1.89-2.905,4.021-2.905,6.398 c0,0.667,0.051,1.298,0.156,1.889c0.107,0.588,0.238,1.103,0.39,1.542c0.167,0.474,0.509,1.224,1.021,2.261 c0.511,1.025,0.767,1.504,0.767,1.425h-3.595v2.385h5.06c0.292,0.715,0.493,1.277,0.616,1.694c0.2,0.651,0.298,1.226,0.298,1.714 c0,1.166-0.265,2.264-0.75,3.311c-1.023-0.219-2.044-0.461-3.048-0.705c-3.565-0.855-6.952-1.655-10.007-1.268 c-1.5,0.193-2.95,0.604-4.361,1.154c-0.724-2.348-1.116-4.842-1.116-7.425c0-13.898,11.268-25.165,25.163-25.165 c13.9,0,25.169,11.266,25.169,25.165c0,3.879-0.908,7.542-2.478,10.824c-0.342,0.169-0.693,0.358-1.054,0.584 c-1.697,1.045-3.057,2.913-4.496,4.891c-1.8,2.479-3.651,5.029-5.983,5.678c-1.384,0.379-3.417-0.401-5.572-1.412 C51.438,51.014,54.202,50.277,55.669,48.465z M65.252,43.708c-3.438,2.109-5.994,9.394-10.929,10.753 c-3.825,1.059-8.83-3.278-13.479-4.211c5.936-0.518,14.817-0.242,14.083-5.278c-0.849-5.816-9.722-3.034-14.964-3.522 c-5.957-0.554-11.96-3.252-16.722-2.641C14.078,39.992,6.189,50.067,0,52.686l11.543,11.542 c12.495-7.322,30.347,4.464,46.902-1.661c6.351-2.354,9.564-9.249,11.438-16.722C70.638,42.859,69.139,41.317,65.252,43.708z"></path> </g> </g></svg>